<svg width="96" height="96" viewBox="0 0 96 96" fill="none" xmlns="http://www.w3.org/2000/svg">
  <rect width="96" height="96" rx="20" fill="#A678FF"/>
  <rect x="8" y="8" width="80" height="80" rx="12" fill="white" fill-opacity="0.1" stroke="white" stroke-width="2"/>
  
  <!-- File document -->
  <path d="M30 20C27.7909 20 26 21.7909 26 24V72C26 74.2091 27.7909 76 30 76H66C68.2091 76 70 74.2091 70 72V32L58 20H30Z" fill="white" stroke="white" stroke-width="2" stroke-linejoin="round"/>
  <path d="M58 20V32H70" fill="none" stroke="white" stroke-width="2" stroke-linejoin="round"/>
  
  <!-- .tin extension -->
  <text x="48" y="46" font-family="system-ui, sans-serif" font-size="8" font-weight="bold" text-anchor="middle" fill="#A678FF">.tin</text>
  
  <!-- Pixel grid pattern inside file -->
  <rect x="32" y="52" width="3" height="3" fill="#A678FF" fill-opacity="0.8"/>
  <rect x="35" y="52" width="3" height="3" fill="#A678FF" fill-opacity="0.6"/>
  <rect x="38" y="52" width="3" height="3" fill="#A678FF" fill-opacity="0.4"/>
  <rect x="41" y="52" width="3" height="3" fill="#A678FF" fill-opacity="0.7"/>
  <rect x="44" y="52" width="3" height="3" fill="#A678FF" fill-opacity="0.9"/>
  <rect x="47" y="52" width="3" height="3" fill="#A678FF" fill-opacity="0.5"/>
  <rect x="50" y="52" width="3" height="3" fill="#A678FF" fill-opacity="0.8"/>
  <rect x="53" y="52" width="3" height="3" fill="#A678FF" fill-opacity="0.6"/>
  <rect x="56" y="52" width="3" height="3" fill="#A678FF" fill-opacity="0.7"/>
  <rect x="59" y="52" width="3" height="3" fill="#A678FF" fill-opacity="0.4"/>
  <rect x="62" y="52" width="3" height="3" fill="#A678FF" fill-opacity="0.9"/>
  
  <rect x="32" y="55" width="3" height="3" fill="#A678FF" fill-opacity="0.6"/>
  <rect x="35" y="55" width="3" height="3" fill="#A678FF" fill-opacity="0.8"/>
  <rect x="38" y="55" width="3" height="3" fill="#A678FF" fill-opacity="0.7"/>
  <rect x="41" y="55" width="3" height="3" fill="#A678FF" fill-opacity="0.5"/>
  <rect x="44" y="55" width="3" height="3" fill="#A678FF" fill-opacity="0.6"/>
  <rect x="47" y="55" width="3" height="3" fill="#A678FF" fill-opacity="0.8"/>
  <rect x="50" y="55" width="3" height="3" fill="#A678FF" fill-opacity="0.7"/>
  <rect x="53" y="55" width="3" height="3" fill="#A678FF" fill-opacity="0.9"/>
  <rect x="56" y="55" width="3" height="3" fill="#A678FF" fill-opacity="0.4"/>
  <rect x="59" y="55" width="3" height="3" fill="#A678FF" fill-opacity="0.6"/>
  <rect x="62" y="55" width="3" height="3" fill="#A678FF" fill-opacity="0.8"/>
  
  <rect x="32" y="58" width="3" height="3" fill="#A678FF" fill-opacity="0.7"/>
  <rect x="35" y="58" width="3" height="3" fill="#A678FF" fill-opacity="0.5"/>
  <rect x="38" y="58" width="3" height="3" fill="#A678FF" fill-opacity="0.9"/>
  <rect x="41" y="58" width="3" height="3" fill="#A678FF" fill-opacity="0.6"/>
  <rect x="44" y="58" width="3" height="3" fill="#A678FF" fill-opacity="0.8"/>
  <rect x="47" y="58" width="3" height="3" fill="#A678FF" fill-opacity="0.4"/>
  <rect x="50" y="58" width="3" height="3" fill="#A678FF" fill-opacity="0.7"/>
  <rect x="53" y="58" width="3" height="3" fill="#A678FF" fill-opacity="0.6"/>
  <rect x="56" y="58" width="3" height="3" fill="#A678FF" fill-opacity="0.8"/>
  <rect x="59" y="58" width="3" height="3" fill="#A678FF" fill-opacity="0.5"/>
  <rect x="62" y="58" width="3" height="3" fill="#A678FF" fill-opacity="0.9"/>
  
  <!-- Upload arrow -->
  <path d="M48 14L48 22M44 18L48 14L52 18" stroke="white" stroke-width="2" stroke-linecap="round" stroke-linejoin="round"/>
</svg>
